# xmcd CD database file
#
# Track frame offsets:
#	150
#	41355
#	80278
#	93755
#	108988
#	133972
#	163674
#	198233
#	261115
#	297548
#
# Disc length: 4557 seconds
#
# Revision: 0
# Processed by: cddbd v1.5.1PL0 Copyright (c) Steve Scherf et al.
# Submitted via: CDex 1.51
#
DISCID=8511cb0a
DTITLE=Medeski Martin and Wood - Live at The Warfield Theatre, San Francisco
DYEAR=2002
DGENRE=Jazz
TTITLE0=Ten dollar high
TTITLE1=Your name is snake Anthony
TTITLE2=Drum solo
TTITLE3=Fire
TTITLE4=Smoke
TTITLE5=Pappy Check
TTITLE6=Uninvisible
TTITLE7=Noctural Transmission
TTITLE8=Blue pepper
TTITLE9=I wanna ride you
EXTD=YEAR: 2002
EXTT0=
EXTT1=
EXTT2=
EXTT3=
EXTT4=
EXTT5=
EXTT6=
EXTT7=
EXTT8=
EXTT9=
PLAYORDER=
